<svg xmlns="http://www.w3.org/2000/svg" version="1.1" xmlns:xlink="http://www.w3.org/1999/xlink" xmlns:svgjs="http://svgjs.dev/svgjs" width="100%" height="100%" viewBox="0 0 1000 600"><rect width="1000" height="600" x="0" y="0" fill="#3171"/><g><circle r="166.66666666666666" cx="353.2283579508463" cy="375.4505881062485" fill="#3177" transform="matrix(0.6700194539014293,0,0,0.6700194539014293,0,48.44076765780551)"/><path d="M281.6239831435925 403.2892551522502L281.6239831435925 420.75242444194953L199.15901705334537 383.8857337192508L199.15901705334537 371.2734447878013L281.6239831435925 334.4067540651026L281.6239831435925 352.08551803739084L213.5230127808296 380.97520550430096L213.5230127808296 374.39956768534006L281.6239831435925 403.2892551522502ZM354.7644792118705 450.45059196856795L338.2714859938211 450.45059196856795L392.22405531168863 300.45059155735373L408.5284031824728 300.45059155735373L354.7644792118705 450.45059196856795ZM492.9337214160198 380.97520550430096L424.83275105325697 352.08551803739084L424.83275105325697 334.4067540651026L507.2977171435041 371.2734447878013L507.2977171435041 383.8857337192508L424.83275105325697 420.75242444194953L424.83275105325697 403.2892551522502L492.9337214160198 374.39956768534006L492.9337214160198 380.97520550430096Z " fill="#e2d1f9" transform="matrix(0.6700194539014293,0,0,0.6700194539014293,0,48.44076765780551)"/><path d="M641.042023383607 450.45059128539725L641.042023383607 450.45059128539725Q628.4374717025469 450.45059128539725 618.86734912989 445.5196439842418Q609.3264037601987 440.5886966830863 603.2283683404266 432.18566222904616L603.2283683404266 432.18566222904616L617.0875397489997 419.34769292426273Q621.0848165552618 425.24148792327696 627.0661431631722 428.39262584354196Q633.0474697710828 431.543763763807 640.4001249183679 431.543763763807L640.4001249183679 431.543763763807Q647.7527800656529 431.543763763807 653.4423346439092 428.39262584354196Q659.1027120192001 425.24148792327696 662.3705587513268 419.05592089460856Q665.6092282804882 412.84117666297476 665.6092282804882 403.82542094666087L665.6092282804882 403.82542094666087L665.6092282804882 302.5513494536985L685.3621946880754 302.5513494536985L685.3621946880754 402.77504163990585Q685.3621946880754 417.2469343107527 679.5851085009228 427.98414500202614Q673.8080223137704 438.6921784903342 663.8294188995976 444.55679628638296Q653.8508154854251 450.45059128539725 641.042023383607 450.45059128539725ZM756.9922279681741 450.45059128539725L756.9922279681741 450.45059128539725Q739.7776782185781 450.45059128539725 727.5816073790338 444.14831544486714Q715.414713742455 437.84603960433714 705.9612999816597 425.88338638851616L705.9612999816597 425.88338638851616L719.4119905487171 412.4326958214589Q726.326987651521 422.0903500030119 735.3719205708003 427.0212973041674Q744.3876762871141 431.95224460532285 757.6341264334133 431.95224460532285L757.6341264334133 431.95224460532285Q770.6471589559894 431.95224460532285 778.5250037566518 426.291867230032Q786.4028485573144 420.63148985474106 786.4028485573144 410.7404180494647L786.4028485573144 410.7404180494647Q786.4028485573144 402.54162401618254 782.6389893747757 397.5231451061308Q778.8459529892716 392.47548899311363 772.4561455398452 389.207642260987Q766.0371608874534 385.96897273182566 758.4802653194104 383.34302446493814Q750.9233697513675 380.7170761980506 743.337296980359 377.6534698866818Q735.780401412316 374.6190407782785 729.478125571786 370.09657431863883Q723.1758497312558 365.5741078589992 719.2952817368555 358.2214527117141Q715.414713742455 350.86879756442903 715.414713742455 339.75228323460516L715.414713742455 339.75228323460516Q715.414713742455 327.35197197430296 721.3960403503654 318.62798828764323Q727.3773669582758 309.9040046009835 737.7936284169298 305.177297720586Q748.1807126726183 300.45059084018845 761.1937451951942 300.45059084018845L761.1937451951942 300.45059084018845Q775.4905746482486 300.45059084018845 786.8405066017958 306.0234366065831Q798.190438555343 311.5962823729777 805.3096760789047 320.61203808929156L805.3096760789047 320.61203808929156L791.8881627148128 334.06272865634884Q785.3524692505596 326.50583308830585 777.9122824943781 322.7127967028016Q770.4429185352315 318.9489375202628 760.7852643536785 318.9489375202628L760.7852643536785 318.9489375202628Q749.0268515586154 318.9489375202628 742.082677252846 324.08412524217624Q735.1676801500423 329.248490167055 735.1676801500423 338.4684863041268L735.1676801500423 338.4684863041268Q735.1676801500423 345.8211414514119 739.0482481444428 350.3436079110515Q742.9288161388431 354.86607437069114 749.2310919793733 358.0172122909562Q755.5333678199033 361.16835021122125 763.206972199808 363.7942984781088Q770.8805765797126 366.4202467449963 778.4374721477557 369.5713846652613Q785.9943677157987 372.72252258552635 792.2966435563287 377.56593827778556Q798.5989193968587 382.3801767670794 802.4794873912592 390.053781146984Q806.3600553856597 397.7273855268887 806.3600553856597 409.2815579011938L806.3600553856597 409.2815579011938Q806.3600553856597 428.59686626429993 793.0260736304642 439.53831737633124Q779.6920918752685 450.45059128539725 756.9922279681741 450.45059128539725ZM848.6086452795835 448.3498326718872L829.7018177579932 448.3498326718872L829.7018177579932 348.5637985301611L848.6086452795835 348.5637985301611L848.6086452795835 448.3498326718872ZM848.6086452795835 391.42510968635867L848.6086452795835 391.42510968635867L841.4602305530564 388.2739717660936Q841.4602305530564 369.16290382374547 850.2717458486122 357.8129718701983Q859.1124383471335 346.46303991665104 875.6850896314907 346.46303991665104L875.6850896314907 346.46303991665104Q883.2711624024989 346.46303991665104 889.3400206193057 349.08898818353856Q895.4380560390778 351.71493645042614 900.6899525728529 357.8129718701983L900.6899525728529 357.8129718701983L888.2896413125507 370.6217639720163Q885.1385033922857 367.2663856309934 881.3746442097467 365.7783482797571Q877.5816078242426 364.31948813148625 872.5339517112254 364.31948813148625L872.5339517112254 364.31948813148625Q862.0301586436753 364.31948813148625 855.3194019616294 371.0302448135322Q848.6086452795835 377.7701786985435 848.6086452795835 391.42510968635867ZM957.0019542961077 450.45059128539725L957.0019542961077 450.45059128539725Q942.0924035807795 450.45059128539725 930.1005731619932 443.62312579148966Q918.1379199461724 436.79566029758206 911.193745640403 425.03724750251905Q904.2787485375993 413.278834707456 904.2787485375993 398.34010678916246L904.2787485375993 398.34010678916246Q904.2787485375993 383.6347964945923 911.1062140315069 371.87638369952924Q917.9336795254144 360.11797090446623 929.5753835086157 353.29050541055864Q941.2462646947824 346.46303991665104 955.7473345685949 346.46303991665104L955.7473345685949 346.46303991665104Q969.6065059771679 346.46303991665104 980.1978306536143 352.76531575718116Q990.818332533026 359.0675915977112 996.7996591409365 370.2132831305005Q1002.7809857488469 381.32979746032436 1002.7809857488469 395.4223864926208L1002.7809857488469 395.4223864926208Q1002.7809857488469 397.5231451061308 1002.5767453280891 399.91567574929496Q1002.3725049073312 402.3373835954246 1001.730606442092 405.4885215156896L1001.730606442092 405.4885215156896L917.4960214809332 405.4885215156896L917.4960214809332 389.73283191436445L991.6644714190231 389.73283191436445L984.7202971132538 395.8308673341366Q984.7202971132538 385.73555510810235 981.160678351473 378.70384919343684Q977.5718823867267 371.67214327877133 971.0653661254387 367.7915752843709Q964.5588498641507 363.9110072899704 955.3096765241135 363.9110072899704L955.3096765241135 363.9110072899704Q945.6520223425605 363.9110072899704 938.2993671952754 368.1125245169905Q930.9467120479903 372.3140417440105 926.9494352417282 379.8709373120535Q922.9521584354661 387.4278328800965 922.9521584354661 397.7273855268887L922.9521584354661 397.7273855268887Q922.9521584354661 408.23117859443886 927.1536756624862 416.1090233951014Q931.3551928895063 423.98686819576403 939.1455060812725 428.2759170316803Q946.9066420700735 432.59414307056204 957.0019542961077 432.59414307056204L957.0019542961077 432.59414307056204Q965.4049887501478 432.59414307056204 972.4366946648133 429.64724557105495Q979.4684005794788 426.7003480715478 984.516056692496 420.835730275499L984.516056692496 420.835730275499L996.7121275320403 433.23604153580123Q989.563712805513 441.6390759898413 979.1474513468593 446.04483363761926Q968.7603670911708 450.45059128539725 957.0019542961077 450.45059128539725ZM1065.8037441541478 450.45059128539725L1065.8037441541478 450.45059128539725Q1052.1488131663325 450.45059128539725 1041.0322988365087 443.62312579148966Q1029.8866073037193 436.79566029758206 1023.4967998542929 425.03724750251905Q1017.0778152019013 413.278834707456 1017.0778152019013 398.57352441288583L1017.0778152019013 398.57352441288583Q1017.0778152019013 383.8682141183156 1023.4967998542929 372.08062412028715Q1029.8866073037193 360.32221132522415 1040.915590024647 353.4072142224203Q1051.9445727455745 346.46303991665104 1065.8037441541478 346.46303991665104L1065.8037441541478 346.46303991665104Q1077.153676107695 346.46303991665104 1086.0819002151125 351.1897467970486Q1095.0101243225301 355.91645367744616 1100.4662612770633 364.2027793196246Q1105.9515754345616 372.51828216476844 1106.5642966968353 383.4305560738344L1106.5642966968353 383.4305560738344L1106.5642966968353 413.4830751282139Q1105.9515754345616 424.19110861652194 1100.5829700889249 432.59414307056204Q1095.2143647432881 440.99717752460214 1086.2861406358704 445.7238844049997Q1077.3579165284527 450.45059128539725 1065.8037441541478 450.45059128539725ZM1068.9548820744128 432.59414307056204L1068.9548820744128 432.59414307056204Q1083.0474711067093 432.59414307056204 1091.6547459815072 423.02402049790527Q1100.262020856305 413.4830751282139 1100.262020856305 398.57352441288583L1100.262020856305 398.57352441288583Q1100.262020856305 388.2739717660936 1096.3814528619048 380.60036738618896Q1092.5008848675043 372.92676300628426 1085.3524701409772 368.637714170368Q1078.2040554144498 364.31948813148625 1068.7506416536548 364.31948813148625L1068.7506416536548 364.31948813148625Q1059.2972278928596 364.31948813148625 1052.0612815574364 368.72524577926424Q1044.7961580190474 373.1310034270422 1040.7113496038892 380.8046078069469Q1036.6265411887307 388.4782121868515 1036.6265411887307 398.34010678916246L1036.6265411887307 398.34010678916246Q1036.6265411887307 408.43541901519677 1040.7113496038892 416.1090233951014Q1044.7961580190474 423.7826277750061 1052.1488131663325 428.18838542278405Q1059.5014683136176 432.59414307056204 1068.9548820744128 432.59414307056204ZM1118.1184690711405 448.3498326718872L1099.0074011287923 448.3498326718872L1099.0074011287923 421.44845153777277L1102.5670198905732 397.08548706164953L1099.0074011287923 372.92676300628426L1099.0074011287923 348.5637985301611L1118.1184690711405 348.5637985301611L1118.1184690711405 448.3498326718872ZM1191.2365397024753 450.45059128539725L1191.2365397024753 450.45059128539725Q1176.5312294079051 450.45059128539725 1164.6561078009804 443.506416979628Q1152.7809861940557 436.5914198768242 1145.9535207001481 424.7162982698994Q1139.1260552062406 412.84117666297476 1139.1260552062406 398.34010678916246L1139.1260552062406 398.34010678916246Q1139.1260552062406 383.6347964945923 1145.9535207001481 371.87638369952924Q1152.7809861940557 360.11797090446623 1164.6561078009804 353.29050541055864Q1176.5312294079051 346.46303991665104 1191.2365397024753 346.46303991665104L1191.2365397024753 346.46303991665104Q1202.7907120767807 346.46303991665104 1212.6526066790916 350.7812659555328Q1222.5436784843678 355.07031479144905 1229.6629160079297 363.26910882473123L1229.6629160079297 363.26910882473123L1217.0583643268694 375.8736605057914Q1212.4483662583336 370.4175235512584 1205.8251411851838 367.58733486361297Q1199.201916112034 364.7279689730021 1191.2365397024753 364.7279689730021L1191.2365397024753 364.7279689730021Q1181.7831259416803 364.7279689730021 1174.4304707943952 369.0461950118838Q1167.0778156471101 373.36442105076554 1162.87629842009 380.92131661880853Q1158.67478119307 388.4782121868515 1158.67478119307 398.34010678916246L1158.67478119307 398.34010678916246Q1158.67478119307 408.23117859443886 1162.87629842009 415.78807416248185Q1167.0778156471101 423.34496973052484 1174.4304707943952 427.7507273783028Q1181.7831259416803 432.18566222904616 1191.2365397024753 432.18566222904616L1191.2365397024753 432.18566222904616Q1199.201916112034 432.18566222904616 1205.8251411851838 429.3262963384354Q1212.4483662583336 426.4961076507899 1217.2917819505928 421.0399706962569L1217.2917819505928 421.0399706962569L1229.6629160079297 433.64452237731706Q1222.747918905126 441.6390759898413 1212.7693154909532 446.04483363761926Q1202.7907120767807 450.45059128539725 1191.2365397024753 450.45059128539725ZM1281.3649196626486 448.3498326718872L1262.4580921410584 448.3498326718872L1262.4580921410584 306.7528666807185L1281.3649196626486 306.7528666807185L1281.3649196626486 448.3498326718872ZM1305.9321245595297 365.7783482797571L1237.8617100412116 365.7783482797571L1237.8617100412116 348.5637985301611L1305.9321245595297 348.5637985301611L1305.9321245595297 365.7783482797571Z " fill="#888aa3" transform="matrix(0.6700194539014293,0,0,0.6700194539014293,0,48.44076765780551)"/></g></svg>