<svg xmlns="http://www.w3.org/2000/svg" viewBox="0 0 627 146"><g fill="none" stroke-width="2"><path stroke="#39afb4" d="M249.42 52.47c-2.32-.92-1.97-2.99-2.91-4.46q-2.37-3.73-6.26-4.21-10.02-1.22-14.71 8.45" vector-effect="non-scaling-stroke"/><path stroke="#ac9c79" d="M197.71 45.25q-5.36.03-10.7-.02-8.73-.08-12.8-7.55" vector-effect="non-scaling-stroke"/><path stroke="#759a6e" d="m197.71 65.5-.32.43a.91.89-70.1 0 1-.73.35c-6.9-.21-16.18-2.37-20.36 5.1q-.78 1.39-2.09 2.37" vector-effect="non-scaling-stroke"/><path stroke="#6c6e82" d="M232.75 85.71q-7.57 3.52-14.31 4.21-6.79.7-17.35.09" vector-effect="non-scaling-stroke"/><path stroke="#759a6e" d="m198.04 90.75-.05-.29a.25.24-3.9 0 0-.25-.21c-5.33.04-12.69.77-17.02-1.27q-4.4-2.06-6.5-7.12" vector-effect="non-scaling-stroke"/><path stroke="#39afb4" d="M174.22 81.86q-.14-.66-.58-1.2a.82.81-25 0 0-.8-.29q-1.06.21-1.84-.58" vector-effect="non-scaling-stroke"/><path stroke="#ac9c79" d="m174.22 81.86-.46 23.64a.68.68 0 0 1-.49.64l-.52.15" vector-effect="non-scaling-stroke"/><path stroke="#7788a8" d="m171.75 106.29-.79-.29" vector-effect="non-scaling-stroke"/><path stroke="#a4708c" d="M257.75 106.46q-.51.63.29 1.19a1.35 1.34-80.5 0 1 .54.76q1.54 5.56-.36 11.08m-87.47-39.7q5.29 13.08.21 26.21" vector-effect="non-scaling-stroke"/><path stroke="#ab4876" d="M170.96 106q-.89.64-.67 1.75M131 61.21q-.83-.15-1.48.29-.47.32.09.38c15.13 1.85 13.6 23.76-.59 23.11q-8.55-.39-17.03.53" vector-effect="non-scaling-stroke"/><path stroke="#7788a8" d="M81.71 66q-3.62-11.66-.64-23.48a.45.44 9.3 0 0-.4-.55q-.72-.06-1.38.28" vector-effect="non-scaling-stroke"/><path stroke="#40879e" d="M79.29 42.25c-.83-2.27-1.59-4.2-1.52-6.74.1-4.23.55-8.79-3.8-11.21-5.48-3.05-13.84-3.1-17.29 3.12-2.27 4.08-1.52 12.62-1.55 17.61" vector-effect="non-scaling-stroke"/><path stroke="#7788a8" d="M335.71 119.25q-1.06-4.54-.71-9.21" vector-effect="non-scaling-stroke"/><path stroke="#39afb4" d="M283.79 101c-1.72 3.04-18.1-3.98-22.78 7.76q-.2.5-.57.61a.46.46 0 0 1-.58-.38q-.14-1.21-1.07-1.99M79.29 42.25q-.71 11.4 0 22.8a.19.19 0 0 0 .28.16q.23-.13.47.04" vector-effect="non-scaling-stroke"/><path stroke="#7788a8" d="M387.5 63.21q-.52-1.32-1.58-.86-.38.16-.22-.22c2.59-6.2-11.46-21.27-10.51-29.34a.6.59 13.2 0 0-.39-.62q-.58-.2-.84-.67" vector-effect="non-scaling-stroke"/><path stroke="#759a6e" d="M283.71 86q-5.35-.05-10.71-.12-9.27-.13-12.75-8.78m24.25-15.56-.59.44a1.32 1.29-60.6 0 1-.89.26c-7.76-.68-14.85-1.77-20.23 3.01M261.71 67q-.32 1.15-1.67.75" vector-effect="non-scaling-stroke"/><path stroke="#40879e" d="M283.71 45.5c-.86-2-19.73 3.82-22.16-7.54a.91.9 2.9 0 0-.61-.67l-.9-.29" vector-effect="non-scaling-stroke"/><path stroke="#ac9c79" d="M583.5 46.04q-4.24-.27-19.07-.16-3.42.02-4.44.38M462.71 69l-.4.42a.37.37 0 0 1-.61-.14c-2.6-7.42-11.18-9-17.58-5.4q-3.48 1.96-3.76 5.18-.27 3.1.64 12.99a.65.64 79.1 0 1-.45.68q-.5.14-1.01.02" vector-effect="non-scaling-stroke"/></g><path fill="#70b0be" d="M249.42 52.47c-2.32-.92-1.97-2.99-2.91-4.46q-2.37-3.73-6.26-4.21-10.02-1.22-14.71 8.45-3.46-6.83-9.79-7.25-5.43-.36-18.04.25-5.36.03-10.7-.02-8.73-.08-12.8-7.55-1.9-11.78 6.52-15.31 3.21-1.35 12.66-1.45c10.79-.12 23.6-1.33 33.96 2.71q18.83 7.33 22.07 28.84Z"/><path fill="#7e6092" d="M131 61.21q-.83-.15-1.48.29-.47.32.09.38c15.13 1.85 13.6 23.76-.59 23.11q-8.55-.39-17.03.53-15.91-.65-25.67-12.7c-1.53-1.88-2.75-4.67-4.61-6.82q-3.62-11.66-.64-23.48a.45.44 9.3 0 0-.4-.55q-.72-.06-1.38.28c-.83-2.27-1.59-4.2-1.52-6.74.1-4.23.55-8.79-3.8-11.21-5.48-3.05-13.84-3.1-17.29 3.12-2.27 4.08-1.52 12.62-1.55 17.61l-24.32-.06c-8.75-.03-13.58-10.08-9.98-17.42 2.81-5.74 8.45-6.45 14.93-6.51q14.5-.13 29.03.01 5.15.05 7.59 1.16c8.99 4.06 5.57 10.54 6.97 17.77a1.48 1.47 53.4 0 0 2.75.41q7.33-13.77 20.99-17.81 5.33-1.58 18.49-1.59 14.1-.01 28.2.03 6.7.02 9.28 1.09c9.43 3.94 9.74 17.41.74 21.45Q156.6 45 148.49 45q-17.52-.01-35.04.01c-13.77.02-12.83 17.09.06 16.55q11.11-.47 17.49-.35ZM283.71 45.5c-.86-2-19.73 3.82-22.16-7.54a.91.9 2.9 0 0-.61-.67l-.9-.29c-1.57-10.96 4.55-16.01 14.46-16.01q21.87 0 43.66.03 6.53 0 9.42 1.24c9.73 4.16 9.22 18.13-.66 21.87q-2.27.86-6.97.86-17.97.02-35.95.01a.24.24 0 0 0-.24.21l-.05.29Z"/><path fill="#70b0be" d="M387.5 63.21q-.52-1.32-1.58-.86-.38.16-.22-.22c2.59-6.2-11.46-21.27-10.51-29.34a.6.59 13.2 0 0-.39-.62q-.58-.2-.84-.67c2.74-8.55 11.88-14.31 20.02-8.07q2.42 1.86 4.95 6.99 18.13 36.76 36.14 73.58 2.88 5.89 3.05 9.4c.63 12.74-15.91 17.84-22.2 5.68-10.37-20.06-19.36-39.75-27-54.76q-.29-.58-1.42-1.11Zm196-17.17q-4.24-.27-19.07-.16-3.42.02-4.44.38-.97-.44-1.3-.43c-7.58.24-16.51 1.17-22.76-.91-3.24-1.07-5.34-4.04-7.84-6.38a.52.51 42.9 0 0-.71.02c-3.97 4.07-6.86 6.82-12.39 6.68-9.63-.26-23.64-1.84-32.71 1.28Q466.79 51.86 462.71 69l-.4.42a.37.37 0 0 1-.61-.14c-2.6-7.42-11.18-9-17.58-5.4q-3.48 1.96-3.76 5.18-.27 3.1.64 12.99a.65.64 79.1 0 1-.45.68q-.5.14-1.01.02c-3.86-28.58 12.79-54.32 41.11-60.35 9.05-1.92 20.18-1.19 29.97-1.15 7.73.04 12.54.77 16.54 7.15a.88.88 0 0 0 1.48.02c3.81-5.78 8.31-6.85 15.46-6.97q22.67-.38 49.71-.08c5.01.05 10.92-.27 14.9 2.21 7.79 4.87 7.13 16.13-.59 20.37-5.64 3.1-17.44 2.13-24.62 2.09Z"/><path fill="#01ada9" d="M79.29 42.25q-.71 11.4 0 22.8a.19.19 0 0 0 .28.16q.23-.13.47.04c-1.67 2.31-1.05 7.29-1.05 10.09-.02 27.28-24.17 50.18-50.98 50.72q-4.66.1-7.64-1.78c-5.47-3.45-7.33-11.13-3.44-16.55 4.63-6.46 10.79-4.46 17.3-6.46 13.26-4.06 20.66-14.34 20.91-28.05q.26-14.07-.01-28.19c.03-4.99-.72-13.53 1.55-17.61 3.45-6.22 11.81-6.17 17.29-3.12 4.35 2.42 3.9 6.98 3.8 11.21-.07 2.54.69 4.47 1.52 6.74Z"/><path fill="#7e6092" d="M373.96 31.5q.26.47.84.67a.6.59 13.2 0 1 .39.62c-.95 8.07 13.1 23.14 10.51 29.34q-.16.38.22.22 1.06-.46 1.58.86c-2.32-1.3-3.41 1.87-4.39 3.88q-20.84 42.68-26.83 53.89-1.38 2.59-4.53 4.01c-6.17 2.78-12.75.05-16.04-5.74q-1.06-4.54-.71-9.21c.61-.76 1.67-2.07 2.08-2.91q18.44-37.81 36.88-75.63Z"/><path fill="#01ada9" d="m260.04 37 .9.29a.91.9 2.9 0 1 .61.67c2.43 11.36 21.3 5.54 22.16 7.54l.04 15.04a.91.9-72 0 0 .37.73l.38.27-.59.44a1.32 1.29-60.6 0 1-.89.26c-7.76-.68-14.85-1.77-20.23 3.01q-.23-.56-.73-.59a.77.77 0 0 0-.76.46q-.45 1.04.41 1.88-.32 1.15-1.67.75V37Z"/><path fill="#e88733" d="M174.21 37.68q4.07 7.47 12.8 7.55 5.34.05 10.7.02V65.5l-.32.43a.91.89-70.1 0 1-.73.35c-6.9-.21-16.18-2.37-20.36 5.1q-.78 1.39-2.09 2.37-.52-17.95 0-36.07Z"/><path fill="#70b0be" d="m81.71 66-1.67-.75q-.24-.17-.47-.04a.19.19 0 0 1-.28-.16q-.71-11.4 0-22.8.66-.34 1.38-.28a.45.44 9.3 0 1 .4.55q-2.98 11.82.64 23.48Z"/><path fill="#01ada9" d="M249.42 52.47c1.38 10.52-3.65 21.33-10.85 28.42-1.59 1.56-4.01 2.98-5.82 4.82q-7.57 3.52-14.31 4.21-6.79.7-17.35.09l-3.05.74-.05-.29a.25.24-3.9 0 0-.25-.21c-5.33.04-12.69.77-17.02-1.27q-4.4-2.06-6.5-7.12-.14-.66-.58-1.2a.82.81-25 0 0-.8-.29q-1.06.21-1.84-.58c4.07.52 2.68-3.72 3.21-6.04q1.31-.98 2.09-2.37c4.18-7.47 13.46-5.31 20.36-5.1a.91.89-70.1 0 0 .73-.35l.32-.43q0 .18.09.38a.67.67 0 0 0 .64.39q4.07-.16 15.81.05c7.86.14 12.7-6.37 11.29-14.07q4.69-9.67 14.71-8.45 3.89.48 6.26 4.21c.94 1.47.59 3.54 2.91 4.46Z"/><path fill="#e88733" d="M583.5 46.04q0 33.73-.15 67.46c-.07 16.24-23.36 15.75-23.35.67q.01-33.92-.01-67.91 1.02-.36 4.44-.38 14.83-.11 19.07.16Z"/><path fill="#d72f5a" d="M131 61.21c13.65-.59 27.47 1.71 35.97 13.35q1.91 2.6 3.78 5.23 5.29 13.08.21 26.21-.89.64-.67 1.75-9.91 17.41-29.86 17.91-11.79.29-44.95.37c-17.37.05-17.48-23.76.77-23.79q22.71-.02 45.42-.17c10.08-.06 10.68-15.98.27-16.18-9.93-.19-20.09.77-29.95-.37q8.48-.92 17.03-.53c14.19.65 15.72-21.26.59-23.11q-.56-.06-.09-.38.65-.44 1.48-.29Z"/><path fill="#e88733" d="M283.71 86q-5.35-.05-10.71-.12-9.27-.13-12.75-8.78l-.21-9.35q1.35.4 1.67-.75l1.08-1.75c5.38-4.78 12.47-3.69 20.23-3.01a1.32 1.29-60.6 0 0 .89-.26l.59-.44q8.09-.42 21.25-.23c5.2.07 9.95 1.89 12.7 6.39 3.57 5.84.25 14.19-5.71 16.75q-2.89 1.25-10.28 1.24-9.37-.01-18.75.31Zm179-17c.09 3.6.07 7.68.84 10.97 2.75 11.92 13.39 21.98 26.32 22l26.81.06q1.23 0 4.18 1.37c11.76 5.46 7.35 22.56-4.86 22.59q-12.8.04-25.59-.01c-26.17-.08-45.13-18.29-50.87-43.23q.51.12 1.01-.02a.65.64 79.1 0 0 .45-.68q-.91-9.89-.64-12.99.28-3.22 3.76-5.18c6.4-3.6 14.98-2.02 17.58 5.4a.37.37 0 0 0 .61.14l.4-.42Z"/><path fill="#01ada9" d="M260.25 77.1q3.48 8.65 12.75 8.78 5.36.07 10.71.12l.08 15c-1.72 3.04-18.1-3.98-22.78 7.76q-.2.5-.57.61a.46.46 0 0 1-.58-.38q-.14-1.21-1.07-1.99 1.22.07 1.21-1-.18-14.26.25-28.9Z"/><path fill="#70b0be" d="M170.75 79.79h.25q.78.79 1.84.58a.82.81-25 0 1 .8.29q.44.54.58 1.2l-.46 23.64a.68.68 0 0 1-.49.64l-.52.15h-1l-.79-.29q5.08-13.13-.21-26.21Z"/><path fill="#e88733" d="M174.22 81.86q2.1 5.06 6.5 7.12c4.33 2.04 11.69 1.31 17.02 1.27a.25.24-3.9 0 1 .25.21l.05.29q-.35 6.79-.22 22.02c.09 11.57-12.39 17.86-20.85 9.21-4.28-4.37-2.45-9.86-3.48-15.03a.57.57 0 0 0-.38-.42q-.2-.06-.36-.24l.52-.15a.68.68 0 0 0 .49-.64l.46-23.64Z"/><path fill="#d72f5a" d="m232.75 85.71 25 20.75q-.51.63.29 1.19a1.35 1.34-80.5 0 1 .54.76q1.54 5.56-.36 11.08c-7.06 9.54-14.46 6.09-22.11-.35q-17.41-14.65-35.02-29.13 10.56.61 17.35-.09 6.74-.69 14.31-4.21Z"/><path fill="#70b0be" d="m283.79 101 .21.38a.75.75 0 0 0 .67.38q11.16-.27 35.61-.22 10.03.03 14.72 8.5-.35 4.67.71 9.21-1.25-1.01-2.07-.1c-3.48 3.84-5.33 5.99-10.7 6.04-16.12.15-30.05-.54-43.46.08-8.68.4-13.03 2.59-18.98-6.04q-.84-1.22-2.28.26 1.9-5.52.36-11.08a1.35 1.34-80.5 0 0-.54-.76q-.8-.56-.29-1.19l1.04.54q.93.78 1.07 1.99a.46.46 0 0 0 .58.38q.37-.11.57-.61c4.68-11.74 21.06-4.72 22.78-7.76Z"/><path fill="#7e6092" d="m170.96 106 .79.29q-.23 1.23-1.46 1.46-.22-1.11.67-1.75Z"/></svg>
