<svg xmlns="http://www.w3.org/2000/svg" version="1.1" viewBox="0 0 627 146"><g fill="none" stroke-linecap="butt" stroke-width="2"><path stroke="#39afb4" d="M 249.42 52.47 C 247.10 51.55 247.45 49.48 246.51 48.01 Q 244.14 44.28 240.25 43.80 Q 230.23 42.58 225.54 52.25" vector-effect="non-scaling-stroke"/><path stroke="#ac9c79" d="M 197.71 45.25 Q 192.35 45.28 187.01 45.23 Q 178.28 45.15 174.21 37.68" vector-effect="non-scaling-stroke"/><path stroke="#759a6e" d="M 197.71 65.50 L 197.39 65.93 A 0.91 0.89 -70.1 0 1 196.66 66.28 C 189.76 66.07 180.48 63.91 176.30 71.38 Q 175.52 72.77 174.21 73.75" vector-effect="non-scaling-stroke"/><path stroke="#6c6e82" d="M 232.75 85.71 Q 225.18 89.23 218.44 89.92 Q 211.65 90.62 201.09 90.01" vector-effect="non-scaling-stroke"/><path stroke="#759a6e" d="M 198.04 90.75 L 197.99 90.46 A 0.25 0.24 -3.9 0 0 197.74 90.25 C 192.41 90.29 185.05 91.02 180.72 88.98 Q 176.32 86.92 174.22 81.86" vector-effect="non-scaling-stroke"/><path stroke="#39afb4" d="M 174.22 81.86 Q 174.08 81.20 173.64 80.66 A 0.82 0.81 -25.0 0 0 172.84 80.37 Q 171.78 80.58 171.00 79.79" vector-effect="non-scaling-stroke"/><path stroke="#ac9c79" d="M 174.22 81.86 L 173.76 105.50 A 0.68 0.68 0.0 0 1 173.27 106.14 L 172.75 106.29" vector-effect="non-scaling-stroke"/><path stroke="#7788a8" d="M 171.75 106.29 L 170.96 106.00" vector-effect="non-scaling-stroke"/><path stroke="#a4708c" d="M 257.75 106.46 Q 257.24 107.09 258.04 107.65 A 1.35 1.34 -80.5 0 1 258.58 108.41 Q 260.12 113.97 258.22 119.49" vector-effect="non-scaling-stroke"/><path stroke="#a4708c" d="M 170.75 79.79 Q 176.04 92.87 170.96 106.00" vector-effect="non-scaling-stroke"/><path stroke="#ab4876" d="M 170.96 106.00 Q 170.07 106.64 170.29 107.75" vector-effect="non-scaling-stroke"/><path stroke="#ab4876" d="M 131.00 61.21 Q 130.17 61.06 129.52 61.50 Q 129.05 61.82 129.61 61.88 C 144.74 63.73 143.21 85.64 129.02 84.99 Q 120.47 84.60 111.99 85.52" vector-effect="non-scaling-stroke"/><path stroke="#7788a8" d="M 81.71 66.00 Q 78.09 54.34 81.07 42.52 A 0.45 0.44 9.3 0 0 80.67 41.97 Q 79.95 41.91 79.29 42.25" vector-effect="non-scaling-stroke"/><path stroke="#40879e" d="M 79.29 42.25 C 78.46 39.98 77.70 38.05 77.77 35.51 C 77.87 31.28 78.32 26.72 73.97 24.30 C 68.49 21.25 60.13 21.20 56.68 27.42 C 54.41 31.50 55.16 40.04 55.13 45.03" vector-effect="non-scaling-stroke"/><path stroke="#7788a8" d="M 335.71 119.25 Q 334.65 114.71 335.00 110.04" vector-effect="non-scaling-stroke"/><path stroke="#39afb4" d="M 283.79 101.00 C 282.07 104.04 265.69 97.02 261.01 108.76 Q 260.81 109.26 260.44 109.37 A 0.46 0.46 0.0 0 1 259.86 108.99 Q 259.72 107.78 258.79 107.00" vector-effect="non-scaling-stroke"/><path stroke="#39afb4" d="M 79.29 42.25 Q 78.58 53.65 79.29 65.05 A 0.19 0.19 0.0 0 0 79.57 65.21 Q 79.80 65.08 80.04 65.25" vector-effect="non-scaling-stroke"/><path stroke="#7788a8" d="M 387.50 63.21 Q 386.98 61.89 385.92 62.35 Q 385.54 62.51 385.70 62.13 C 388.29 55.93 374.24 40.86 375.19 32.79 A 0.60 0.59 13.2 0 0 374.80 32.17 Q 374.22 31.97 373.96 31.50" vector-effect="non-scaling-stroke"/><path stroke="#759a6e" d="M 283.71 86.00 Q 278.36 85.95 273.00 85.88 Q 263.73 85.75 260.25 77.10" vector-effect="non-scaling-stroke"/><path stroke="#759a6e" d="M 284.50 61.54 L 283.91 61.98 A 1.32 1.29 -60.6 0 1 283.02 62.24 C 275.26 61.56 268.17 60.47 262.79 65.25" vector-effect="non-scaling-stroke"/><path stroke="#759a6e" d="M 261.71 67.00 Q 261.39 68.15 260.04 67.75" vector-effect="non-scaling-stroke"/><path stroke="#40879e" d="M 283.71 45.50 C 282.85 43.50 263.98 49.32 261.55 37.96 A 0.91 0.90 2.9 0 0 260.94 37.29 L 260.04 37.00" vector-effect="non-scaling-stroke"/><path stroke="#ac9c79" d="M 583.50 46.04 Q 579.26 45.77 564.43 45.88 Q 561.01 45.90 559.99 46.26" vector-effect="non-scaling-stroke"/><path stroke="#ac9c79" d="M 462.71 69.00 L 462.31 69.42 A 0.37 0.37 0.0 0 1 461.70 69.28 C 459.10 61.86 450.52 60.28 444.12 63.88 Q 440.64 65.84 440.36 69.06 Q 440.09 72.16 441.00 82.05 A 0.65 0.64 79.1 0 1 440.55 82.73 Q 440.05 82.87 439.54 82.75" vector-effect="non-scaling-stroke"/></g><path fill="#70b0be" d="M 249.42 52.47 C 247.10 51.55 247.45 49.48 246.51 48.01 Q 244.14 44.28 240.25 43.80 Q 230.23 42.58 225.54 52.25 Q 222.08 45.42 215.75 45.00 Q 210.32 44.64 197.71 45.25 Q 192.35 45.28 187.01 45.23 Q 178.28 45.15 174.21 37.68 Q 172.31 25.90 180.73 22.37 Q 183.94 21.02 193.39 20.92 C 204.18 20.80 216.99 19.59 227.35 23.63 Q 246.18 30.96 249.42 52.47 Z"/><path fill="#7e6092" d="M 131.00 61.21 Q 130.17 61.06 129.52 61.50 Q 129.05 61.82 129.61 61.88 C 144.74 63.73 143.21 85.64 129.02 84.99 Q 120.47 84.60 111.99 85.52 Q 96.08 84.87 86.32 72.82 C 84.79 70.94 83.57 68.15 81.71 66.00 Q 78.09 54.34 81.07 42.52 A 0.45 0.44 9.3 0 0 80.67 41.97 Q 79.95 41.91 79.29 42.25 C 78.46 39.98 77.70 38.05 77.77 35.51 C 77.87 31.28 78.32 26.72 73.97 24.30 C 68.49 21.25 60.13 21.20 56.68 27.42 C 54.41 31.50 55.16 40.04 55.13 45.03 Q 42.81 45.00 30.81 44.97 C 22.06 44.94 17.23 34.89 20.83 27.55 C 23.64 21.81 29.28 21.10 35.76 21.04 Q 50.26 20.91 64.79 21.05 Q 69.94 21.10 72.38 22.21 C 81.37 26.27 77.95 32.75 79.35 39.98 A 1.48 1.47 53.4 0 0 82.10 40.39 Q 89.43 26.62 103.09 22.58 Q 108.42 21.00 121.58 20.99 Q 135.68 20.98 149.78 21.02 Q 156.48 21.04 159.06 22.11 C 168.49 26.05 168.80 39.52 159.80 43.56 Q 156.60 45.00 148.49 45.00 Q 130.97 44.99 113.45 45.01 C 99.68 45.03 100.62 62.10 113.51 61.56 Q 124.62 61.09 131.00 61.21 Z"/><path fill="#7e6092" d="M 283.71 45.50 C 282.85 43.50 263.98 49.32 261.55 37.96 A 0.91 0.90 2.9 0 0 260.94 37.29 L 260.04 37.00 C 258.47 26.04 264.59 20.99 274.50 20.99 Q 296.37 20.99 318.16 21.02 Q 324.69 21.02 327.58 22.26 C 337.31 26.42 336.80 40.39 326.92 44.13 Q 324.65 44.99 319.95 44.99 Q 301.98 45.01 284.00 45.00 A 0.24 0.24 0.0 0 0 283.76 45.21 L 283.71 45.50 Z"/><path fill="#70b0be" d="M 387.50 63.21 Q 386.98 61.89 385.92 62.35 Q 385.54 62.51 385.70 62.13 C 388.29 55.93 374.24 40.86 375.19 32.79 A 0.60 0.59 13.2 0 0 374.80 32.17 Q 374.22 31.97 373.96 31.50 C 376.70 22.95 385.84 17.19 393.98 23.43 Q 396.40 25.29 398.93 30.42 Q 417.06 67.18 435.07 104.00 Q 437.95 109.89 438.12 113.40 C 438.75 126.14 422.21 131.24 415.92 119.08 C 405.55 99.02 396.56 79.33 388.92 64.32 Q 388.63 63.74 387.50 63.21 Z"/><path fill="#70b0be" d="M 583.50 46.04 Q 579.26 45.77 564.43 45.88 Q 561.01 45.90 559.99 46.26 Q 559.02 45.82 558.69 45.83 C 551.11 46.07 542.18 47.00 535.93 44.92 C 532.69 43.85 530.59 40.88 528.09 38.54 A 0.52 0.51 42.9 0 0 527.38 38.56 C 523.41 42.63 520.52 45.38 514.99 45.24 C 505.36 44.98 491.35 43.40 482.28 46.52 Q 466.79 51.86 462.71 69.00 L 462.31 69.42 A 0.37 0.37 0.0 0 1 461.70 69.28 C 459.10 61.86 450.52 60.28 444.12 63.88 Q 440.64 65.84 440.36 69.06 Q 440.09 72.16 441.00 82.05 A 0.65 0.64 79.1 0 1 440.55 82.73 Q 440.05 82.87 439.54 82.75 C 435.68 54.17 452.33 28.43 480.65 22.40 C 489.70 20.48 500.83 21.21 510.62 21.25 C 518.35 21.29 523.16 22.02 527.16 28.40 A 0.88 0.88 0.0 0 0 528.64 28.42 C 532.45 22.64 536.95 21.57 544.10 21.45 Q 566.77 21.07 593.81 21.37 C 598.82 21.42 604.73 21.10 608.71 23.58 C 616.50 28.45 615.84 39.71 608.12 43.95 C 602.48 47.05 590.68 46.08 583.50 46.04 Z"/><path fill="#01ada9" d="M 79.29 42.25 Q 78.58 53.65 79.29 65.05 A 0.19 0.19 0.0 0 0 79.57 65.21 Q 79.80 65.08 80.04 65.25 C 78.37 67.56 78.99 72.54 78.99 75.34 C 78.97 102.62 54.82 125.52 28.01 126.06 Q 23.35 126.16 20.37 124.28 C 14.90 120.83 13.04 113.15 16.93 107.73 C 21.56 101.27 27.72 103.27 34.23 101.27 C 47.49 97.21 54.89 86.93 55.14 73.22 Q 55.40 59.15 55.13 45.03 C 55.16 40.04 54.41 31.50 56.68 27.42 C 60.13 21.20 68.49 21.25 73.97 24.30 C 78.32 26.72 77.87 31.28 77.77 35.51 C 77.70 38.05 78.46 39.98 79.29 42.25 Z"/><path fill="#7e6092" d="M 373.96 31.50 Q 374.22 31.97 374.80 32.17 A 0.60 0.59 13.2 0 1 375.19 32.79 C 374.24 40.86 388.29 55.93 385.70 62.13 Q 385.54 62.51 385.92 62.35 Q 386.98 61.89 387.50 63.21 C 385.18 61.91 384.09 65.08 383.11 67.09 Q 362.27 109.77 356.28 120.98 Q 354.90 123.57 351.75 124.99 C 345.58 127.77 339.00 125.04 335.71 119.25 Q 334.65 114.71 335.00 110.04 C 335.61 109.28 336.67 107.97 337.08 107.13 Q 355.52 69.32 373.96 31.50 Z"/><path fill="#01ada9" d="M 260.04 37.00 L 260.94 37.29 A 0.91 0.90 2.9 0 1 261.55 37.96 C 263.98 49.32 282.85 43.50 283.71 45.50 L 283.75 60.54 A 0.91 0.90 -72.0 0 0 284.12 61.27 L 284.50 61.54 L 283.91 61.98 A 1.32 1.29 -60.6 0 1 283.02 62.24 C 275.26 61.56 268.17 60.47 262.79 65.25 Q 262.56 64.69 262.06 64.66 A 0.77 0.77 0.0 0 0 261.30 65.12 Q 260.85 66.16 261.71 67.00 Q 261.39 68.15 260.04 67.75 L 260.04 37.00 Z"/><path fill="#e88733" d="M 174.21 37.68 Q 178.28 45.15 187.01 45.23 Q 192.35 45.28 197.71 45.25 L 197.71 65.50 L 197.39 65.93 A 0.91 0.89 -70.1 0 1 196.66 66.28 C 189.76 66.07 180.48 63.91 176.30 71.38 Q 175.52 72.77 174.21 73.75 Q 173.69 55.80 174.21 37.68 Z"/><path fill="#70b0be" d="M 81.71 66.00 L 80.04 65.25 Q 79.80 65.08 79.57 65.21 A 0.19 0.19 0.0 0 1 79.29 65.05 Q 78.58 53.65 79.29 42.25 Q 79.95 41.91 80.67 41.97 A 0.45 0.44 9.3 0 1 81.07 42.52 Q 78.09 54.34 81.71 66.00 Z"/><path fill="#01ada9" d="M 249.42 52.47 C 250.80 62.99 245.77 73.80 238.57 80.89 C 236.98 82.45 234.56 83.87 232.75 85.71 Q 225.18 89.23 218.44 89.92 Q 211.65 90.62 201.09 90.01 L 198.04 90.75 L 197.99 90.46 A 0.25 0.24 -3.9 0 0 197.74 90.25 C 192.41 90.29 185.05 91.02 180.72 88.98 Q 176.32 86.92 174.22 81.86 Q 174.08 81.20 173.64 80.66 A 0.82 0.81 -25.0 0 0 172.84 80.37 Q 171.78 80.58 171.00 79.79 C 175.07 80.31 173.68 76.07 174.21 73.75 Q 175.52 72.77 176.30 71.38 C 180.48 63.91 189.76 66.07 196.66 66.28 A 0.91 0.89 -70.1 0 0 197.39 65.93 L 197.71 65.50 Q 197.71 65.68 197.80 65.88 A 0.67 0.67 0.0 0 0 198.44 66.27 Q 202.51 66.11 214.25 66.32 C 222.11 66.46 226.95 59.95 225.54 52.25 Q 230.23 42.58 240.25 43.80 Q 244.14 44.28 246.51 48.01 C 247.45 49.48 247.10 51.55 249.42 52.47 Z"/><path fill="#e88733" d="M 583.50 46.04 Q 583.50 79.77 583.35 113.50 C 583.28 129.74 559.99 129.25 560.00 114.17 Q 560.01 80.25 559.99 46.26 Q 561.01 45.90 564.43 45.88 Q 579.26 45.77 583.50 46.04 Z"/><path fill="#d72f5a" d="M 131.00 61.21 C 144.65 60.62 158.47 62.92 166.97 74.56 Q 168.88 77.16 170.75 79.79 Q 176.04 92.87 170.96 106.00 Q 170.07 106.64 170.29 107.75 Q 160.38 125.16 140.43 125.66 Q 128.64 125.95 95.48 126.03 C 78.11 126.08 78.00 102.27 96.25 102.24 Q 118.96 102.22 141.67 102.07 C 151.75 102.01 152.35 86.09 141.94 85.89 C 132.01 85.70 121.85 86.66 111.99 85.52 Q 120.47 84.60 129.02 84.99 C 143.21 85.64 144.74 63.73 129.61 61.88 Q 129.05 61.82 129.52 61.50 Q 130.17 61.06 131.00 61.21 Z"/><path fill="#e88733" d="M 283.71 86.00 Q 278.36 85.95 273.00 85.88 Q 263.73 85.75 260.25 77.10 L 260.04 67.75 Q 261.39 68.15 261.71 67.00 L 262.79 65.25 C 268.17 60.47 275.26 61.56 283.02 62.24 A 1.32 1.29 -60.6 0 0 283.91 61.98 L 284.50 61.54 Q 292.59 61.12 305.75 61.31 C 310.95 61.38 315.70 63.20 318.45 67.70 C 322.02 73.54 318.70 81.89 312.74 84.45 Q 309.85 85.70 302.46 85.69 Q 293.09 85.68 283.71 86.00 Z"/><path fill="#e88733" d="M 462.71 69.00 C 462.80 72.60 462.78 76.68 463.55 79.97 C 466.30 91.89 476.94 101.95 489.87 101.97 Q 503.27 102.00 516.68 102.03 Q 517.91 102.03 520.86 103.40 C 532.62 108.86 528.21 125.96 516.00 125.99 Q 503.20 126.03 490.41 125.98 C 464.24 125.90 445.28 107.69 439.54 82.75 Q 440.05 82.87 440.55 82.73 A 0.65 0.64 79.1 0 0 441.00 82.05 Q 440.09 72.16 440.36 69.06 Q 440.64 65.84 444.12 63.88 C 450.52 60.28 459.10 61.86 461.70 69.28 A 0.37 0.37 0.0 0 0 462.31 69.42 L 462.71 69.00 Z"/><path fill="#01ada9" d="M 260.25 77.10 Q 263.73 85.75 273.00 85.88 Q 278.36 85.95 283.71 86.00 L 283.79 101.00 C 282.07 104.04 265.69 97.02 261.01 108.76 Q 260.81 109.26 260.44 109.37 A 0.46 0.46 0.0 0 1 259.86 108.99 Q 259.72 107.78 258.79 107.00 Q 260.01 107.07 260.00 106.00 Q 259.82 91.74 260.25 77.10 Z"/><path fill="#70b0be" d="M 170.75 79.79 L 171.00 79.79 Q 171.78 80.58 172.84 80.37 A 0.82 0.81 -25.0 0 1 173.64 80.66 Q 174.08 81.20 174.22 81.86 L 173.76 105.50 A 0.68 0.68 0.0 0 1 173.27 106.14 L 172.75 106.29 L 171.75 106.29 L 170.96 106.00 Q 176.04 92.87 170.75 79.79 Z"/><path fill="#e88733" d="M 174.22 81.86 Q 176.32 86.92 180.72 88.98 C 185.05 91.02 192.41 90.29 197.74 90.25 A 0.25 0.24 -3.9 0 1 197.99 90.46 L 198.04 90.75 Q 197.69 97.54 197.82 112.77 C 197.91 124.34 185.43 130.63 176.97 121.98 C 172.69 117.61 174.52 112.12 173.49 106.95 A 0.57 0.57 0.0 0 0 173.11 106.53 Q 172.91 106.47 172.75 106.29 L 173.27 106.14 A 0.68 0.68 0.0 0 0 173.76 105.50 L 174.22 81.86 Z"/><path fill="#d72f5a" d="M 232.75 85.71 L 257.75 106.46 Q 257.24 107.09 258.04 107.65 A 1.35 1.34 -80.5 0 1 258.58 108.41 Q 260.12 113.97 258.22 119.49 C 251.16 129.03 243.76 125.58 236.11 119.14 Q 218.70 104.49 201.09 90.01 Q 211.65 90.62 218.44 89.92 Q 225.18 89.23 232.75 85.71 Z"/><path fill="#70b0be" d="M 283.79 101.00 L 284.00 101.38 A 0.75 0.75 0.0 0 0 284.67 101.76 Q 295.83 101.49 320.28 101.54 Q 330.31 101.57 335.00 110.04 Q 334.65 114.71 335.71 119.25 Q 334.46 118.24 333.64 119.15 C 330.16 122.99 328.31 125.14 322.94 125.19 C 306.82 125.34 292.89 124.65 279.48 125.27 C 270.80 125.67 266.45 127.86 260.50 119.23 Q 259.66 118.01 258.22 119.49 Q 260.12 113.97 258.58 108.41 A 1.35 1.34 -80.5 0 0 258.04 107.65 Q 257.24 107.09 257.75 106.46 L 258.79 107.00 Q 259.72 107.78 259.86 108.99 A 0.46 0.46 0.0 0 0 260.44 109.37 Q 260.81 109.26 261.01 108.76 C 265.69 97.02 282.07 104.04 283.79 101.00 Z"/><path fill="#7e6092" d="M 170.96 106.00 L 171.75 106.29 Q 171.52 107.52 170.29 107.75 Q 170.07 106.64 170.96 106.00 Z"/></svg>