<?xml version="1.0" standalone="no"?>
<!DOCTYPE svg PUBLIC "-//W3C//DTD SVG 20010904//EN"
 "http://www.w3.org/TR/2001/REC-SVG-20010904/DTD/svg10.dtd">
<svg version="1.0" xmlns="http://www.w3.org/2000/svg"
 width="1024.000000pt" height="1024.000000pt" viewBox="0 0 1024.000000 1024.000000"
 preserveAspectRatio="xMidYMid meet">
<metadata>
Created by potrace 1.14, written by Peter Selinger 2001-2017
</metadata>
<g transform="translate(0.000000,1024.000000) scale(0.100000,-0.100000)"
fill="#000000" stroke="none">
<path d="M4890 9359 c-1777 -4 -2491 -9 -2530 -17 -191 -39 -301 -79 -500
-179 -144 -74 -203 -112 -315 -207 -98 -84 -265 -261 -265 -282 0 -5 -11 -21
-24 -35 -30 -32 -107 -151 -151 -233 -69 -130 -151 -403 -177 -593 -10 -79
-13 -611 -13 -2788 0 -2506 1 -2697 17 -2790 71 -410 222 -704 494 -965 128
-122 213 -185 349 -259 198 -108 335 -153 565 -187 104 -15 316 -17 2215 -19
1155 -2 2357 0 2670 5 557 8 573 9 705 35 223 43 392 107 565 213 229 141 427
351 549 582 130 248 197 482 218 760 14 200 3 5315 -13 5450 -19 172 -106 489
-130 474 -5 -3 -8 5 -7 18 2 26 -54 145 -121 258 -212 354 -611 625 -1071 726
-111 25 -373 46 -505 41 -27 -1 -1164 -4 -2525 -8z m-359 -1214 c137 -70 198
-211 155 -357 -34 -117 -120 -178 -345 -243 -69 -20 -141 -43 -160 -51 -20 -8
-49 -20 -66 -27 -70 -29 -252 -121 -299 -151 -28 -18 -69 -43 -91 -56 -39 -21
-278 -199 -339 -250 -68 -57 -249 -246 -310 -323 -97 -122 -205 -278 -254
-365 -272 -491 -370 -838 -352 -1235 6 -119 11 -118 44 13 20 76 104 310 117
326 5 6 7 13 5 15 -8 8 83 164 94 161 6 -1 9 2 5 8 -11 18 41 99 227 354 259
354 535 613 902 847 253 162 624 314 911 373 319 66 739 79 1065 31 345 -50
712 -189 1050 -398 72 -44 297 -212 375 -278 175 -151 431 -441 561 -636 98
-147 223 -381 275 -513 110 -277 162 -556 124 -657 -22 -57 -74 -116 -134
-151 -40 -24 -56 -27 -131 -27 -187 1 -262 93 -344 420 -58 228 -153 445 -278
632 -269 404 -657 716 -1103 888 -313 121 -619 173 -958 162 -390 -12 -744
-126 -1141 -366 -322 -196 -634 -500 -801 -781 -21 -36 -44 -72 -51 -80 -40
-48 -134 -261 -199 -450 -51 -149 -101 -246 -149 -285 -147 -120 -337 -91
-415 63 -45 89 -37 26 24 -188 128 -453 339 -804 716 -1194 71 -73 125 -136
121 -140 -4 -4 -2 -6 4 -4 6 2 39 -22 75 -54 35 -31 75 -66 89 -78 14 -12 18
-18 10 -14 -9 4 -12 3 -7 -2 5 -5 9 -7 10 -4 1 3 17 -6 35 -19 28 -20 31 -25
20 -39 -12 -15 -11 -16 4 -3 16 11 25 7 77 -35 33 -27 82 -65 109 -84 28 -19
49 -38 47 -41 -2 -3 1 -6 8 -6 7 0 39 -16 70 -36 32 -20 60 -37 62 -37 3 0 28
-16 56 -35 28 -19 56 -35 61 -35 5 0 6 -5 2 -12 -4 -7 -3 -8 4 -4 6 4 39 -7
72 -24 90 -46 268 -116 327 -130 29 -6 51 -15 49 -18 -2 -4 8 -8 22 -8 15 -1
75 -11 134 -22 427 -84 875 -28 1303 161 39 17 78 30 89 29 10 0 16 2 12 5 -3
3 35 30 85 59 49 29 103 63 119 74 17 12 34 19 39 15 5 -3 13 0 17 6 5 8 3 9
-6 4 -9 -5 -11 -4 -6 3 4 7 13 12 20 12 8 0 20 7 27 17 25 29 141 113 150 107
5 -3 9 2 9 10 0 8 18 27 40 43 22 15 40 33 40 38 0 6 25 30 55 54 30 24 55 48
55 53 0 6 21 35 48 66 66 79 69 82 77 74 5 -4 5 -1 0 7 -5 9 -2 19 10 28 11 7
15 13 11 13 -4 0 1 12 12 28 11 15 35 57 55 94 19 37 38 64 43 60 4 -4 4 -1 0
6 -4 7 -3 18 2 25 25 30 74 216 79 297 4 74 2 94 -20 154 -14 39 -23 74 -20
79 3 6 2 7 -4 4 -5 -3 -25 10 -44 29 -72 75 -205 102 -342 70 -121 -28 -193
-75 -392 -255 -177 -159 -302 -251 -416 -305 -257 -123 -590 -124 -886 -3 -32
13 -57 30 -55 36 1 7 -2 10 -7 7 -15 -10 -63 13 -55 26 4 7 3 8 -4 4 -6 -4
-25 0 -43 9 -22 12 -29 21 -24 33 5 13 3 14 -6 5 -13 -13 -42 -6 -33 8 3 5 -1
7 -8 4 -18 -7 -221 163 -212 177 4 6 3 8 -3 5 -5 -3 -36 21 -68 53 -33 33 -55
60 -50 60 6 0 2 6 -7 14 -36 27 -146 192 -195 291 -39 78 -92 252 -104 340 -7
53 -9 140 -6 210 13 303 103 534 302 780 102 126 322 312 354 300 8 -3 12 -3
8 1 -17 17 142 89 283 129 252 70 555 64 793 -15 178 -60 317 -141 458 -270
68 -61 159 -167 159 -184 0 -3 11 -21 24 -40 33 -49 93 -209 112 -297 20 -91
13 -174 -20 -243 -48 -104 -108 -158 -200 -182 -74 -20 -96 -18 -164 17 -89
44 -136 112 -187 269 -37 114 -66 167 -114 214 -22 22 -37 44 -34 49 3 6 1 7
-5 3 -6 -3 -30 7 -55 24 -60 40 -203 86 -315 101 -160 22 -355 -20 -482 -102
-33 -21 -65 -39 -69 -39 -16 0 -120 -120 -154 -178 -117 -202 -123 -493 -15
-707 54 -104 153 -220 240 -277 21 -14 35 -28 30 -33 -4 -5 -2 -5 5 -1 6 3 33
-5 58 -20 90 -50 153 -66 280 -71 104 -5 128 -2 182 16 81 27 150 69 246 147
44 35 84 61 89 57 6 -3 8 -2 5 4 -10 16 148 159 274 248 140 99 299 161 478
186 224 31 468 -39 678 -197 82 -62 188 -175 188 -201 0 -10 6 -18 13 -18 7 0
21 -15 32 -33 23 -37 25 -46 8 -36 -7 4 -8 3 -4 -5 4 -6 11 -9 16 -6 19 12 69
-145 89 -282 32 -215 -18 -479 -137 -718 -59 -120 -198 -329 -212 -320 -4 3
-7 -1 -6 -9 1 -18 -133 -168 -145 -161 -5 4 -6 0 -3 -8 3 -9 -36 -53 -107
-121 -103 -97 -142 -127 -123 -93 4 7 3 9 -2 4 -5 -5 -9 -13 -9 -17 0 -16
-110 -110 -123 -105 -7 3 -10 0 -7 -5 8 -13 -142 -123 -157 -114 -7 4 -8 3 -4
-4 9 -14 -70 -65 -86 -56 -6 4 -8 3 -4 -4 7 -12 -55 -50 -224 -140 -276 -145
-583 -248 -850 -284 -359 -49 -758 -16 -1095 89 -138 43 -335 125 -328 136 3
5 1 7 -4 4 -15 -9 -169 58 -166 72 2 5 -3 8 -10 6 -6 -3 -64 25 -127 61 -63
37 -125 72 -137 78 -13 6 -23 14 -23 19 0 4 -4 7 -9 7 -5 0 -50 28 -100 61
-71 47 -89 64 -81 74 8 9 8 15 0 20 -6 4 -9 1 -8 -7 2 -7 -4 -13 -12 -13 -8 0
-14 6 -12 13 1 8 -2 11 -7 8 -11 -7 -107 73 -103 87 1 4 -2 6 -8 2 -13 -8 -42
20 -32 30 4 5 2 5 -4 2 -6 -4 -43 21 -83 54 -56 47 -70 64 -61 74 8 10 8 15
-1 21 -7 4 -9 3 -5 -4 15 -25 -18 -22 -45 4 -24 23 -27 30 -16 43 10 14 10 14
-4 3 -14 -10 -23 -6 -60 29 -24 23 -43 46 -41 51 1 5 -2 7 -7 4 -13 -8 -163
153 -155 166 4 6 2 8 -3 5 -14 -9 -75 61 -67 75 4 6 3 8 -3 5 -6 -4 -30 17
-54 46 -24 28 -35 45 -24 37 18 -14 19 -13 8 1 -7 9 -10 19 -6 23 4 4 0 4 -9
1 -12 -5 -26 6 -48 36 -17 24 -28 49 -26 55 3 9 -1 11 -11 7 -13 -5 -15 -2
-10 11 4 10 3 15 -3 11 -12 -8 -72 74 -63 88 3 5 2 7 -4 4 -13 -8 -56 50 -47
65 5 7 3 8 -6 3 -10 -6 -12 -4 -7 8 4 10 2 16 -4 14 -14 -3 -59 75 -51 88 3 6
2 7 -3 3 -11 -11 -38 29 -29 44 4 6 3 8 -3 5 -10 -6 -24 14 -86 128 -143 263
-231 508 -299 835 -14 72 -21 153 -25 331 -11 480 48 771 250 1228 87 198 273
501 410 671 146 180 430 476 447 465 5 -3 8 0 5 7 -2 7 12 26 33 41 20 16 55
45 77 65 37 35 111 91 280 213 213 154 687 386 928 454 67 19 191 14 238 -10z"/>
<path d="M6329 4053 c-13 -16 -12 -17 4 -4 9 7 17 15 17 17 0 8 -8 3 -21 -13z"/>
<path d="M6846 3222 c-3 -5 1 -9 9 -9 8 0 12 4 9 9 -3 4 -7 8 -9 8 -2 0 -6 -4
-9 -8z"/>
<path d="M7216 2908 c3 -5 10 -6 15 -3 13 9 11 12 -6 12 -8 0 -12 -4 -9 -9z"/>
<path d="M7144 2798 l-19 -23 23 19 c21 18 27 26 19 26 -2 0 -12 -10 -23 -22z"/>
</g>
</svg>
